#tb 0: 1/25
0,          0,          0,        1,   270336, 0x7be065a8
0,          1,          1,        1,   270336, 0xa4e56622
0,          2,          2,        1,   270336, 0xae4a662a
0,          3,          3,        1,   270336, 0x367e6678
0,          4,          4,        1,   270336, 0x970f667c
0,          5,          5,        1,   270336, 0xdf7565f6
0,          6,          6,        1,   270336, 0xc4a36652
0,          7,          7,        1,   270336, 0x2f426630
0,          8,          8,        1,   270336, 0xc095662c
0,          9,          9,        1,   270336, 0x75fa6626
0,         10,         10,        1,   270336, 0x95616592
0,         11,         11,        1,   270336, 0x78916608
0,         12,         12,        1,   270336, 0x118c65bc
0,         13,         13,        1,   270336, 0x75446604
0,         14,         14,        1,   270336, 0xe5fb6612
0,         15,         15,        1,   270336, 0x3b8f6618
0,         16,         16,        1,   270336, 0xdeee6646
0,         17,         17,        1,   270336, 0xede46606
0,         18,         18,        1,   270336, 0x64336606
0,         19,         19,        1,   270336, 0xfc50663a
0,         20,         20,        1,   270336, 0xe5fc660a
0,         21,         21,        1,   270336, 0x6ecb6612
0,         22,         22,        1,   270336, 0x06a4662a
0,         23,         23,        1,   270336, 0xc7b66656
0,         24,         24,        1,   270336, 0x033e6636
0,         25,         25,        1,   270336, 0xc14f6650
0,         26,         26,        1,   270336, 0x7462662c
0,         27,         27,        1,   270336, 0xf8cb65e4
0,         28,         28,        1,   270336, 0x6351665e
0,         29,         29,        1,   270336, 0x44e6666e
0,         30,         30,        1,   270336, 0x1d5f660e
0,         31,         31,        1,   270336, 0xc248662e
0,         32,         32,        1,   270336, 0x36256642
0,         33,         33,        1,   270336, 0xe4426598
0,         34,         34,        1,   270336, 0xde81665a
0,         35,         35,        1,   270336, 0xaeab6622
0,         36,         36,        1,   270336, 0x134e6668
0,         37,         37,        1,   270336, 0x6c6e665e
0,         38,         38,        1,   270336, 0x500b6670
0,         39,         39,        1,   270336, 0x2c4c6648
0,         40,         40,        1,   270336, 0xe4ae664c
0,         41,         41,        1,   270336, 0x9b7e664c
0,         42,         42,        1,   270336, 0xfefb6570
0,         43,         43,        1,   270336, 0x04e96600
0,         44,         44,        1,   270336, 0xcbba6670
0,         45,         45,        1,   270336, 0x9f9666a6
0,         46,         46,        1,   270336, 0x85b76642
0,         47,         47,        1,   270336, 0x1a0e667c
0,         48,         48,        1,   270336, 0x92c9662a
0,         49,         49,        1,   270336, 0x9ed76682
